<?xml version="1.0" encoding="iso-8859-1"?>
<!-- Generator: Adobe Illustrator 19.0.0, SVG Export Plug-In . SVG Version: 6.00 Build 0)  -->
<svg version="1.1" id="Capa_1" xmlns="http://www.w3.org/2000/svg" xmlns:xlink="http://www.w3.org/1999/xlink" x="0px" y="0px"
	 viewBox="0 0 395.704 395.704" style="enable-background:new 0 0 395.704 395.704;" xml:space="preserve">
<g>
	<g id="Guides_For_Artboard_21_">
	</g>
	<g id="Artwork_20_">
	</g>
	<g id="Layer_2_20_">
		<g>
			<path style="fill:#F7F1E6;" d="M246.119,149.458V38.588c-1.85,0.558-3.808,0.864-5.839,0.864h-84.856
				c-2.031,0-3.99-0.307-5.839-0.864v110.87c-46.675,19.047-79.574,64.882-79.574,118.406c0,70.604,57.236,127.84,127.841,127.84
				s127.841-57.236,127.841-127.84C325.692,214.339,292.794,168.504,246.119,149.458z M198.763,370.105
				c-54.401,0-98.95-42.05-102.997-95.415H301.76C297.713,328.055,253.164,370.105,198.763,370.105z"/>
			<path style="fill:#E0DCD3;" d="M240.28,40.452c2.031,0,3.99-0.307,5.839-0.864c8.323-2.507,14.388-10.222,14.388-19.361
				C260.507,9.057,251.45,0,240.279,0h-84.856c-11.171,0-20.228,9.057-20.228,20.227c0,9.14,6.065,16.855,14.388,19.361
				c1.85,0.558,3.808,0.864,5.839,0.864H240.28z"/>
			<path style="fill:#5A9794;" d="M95.766,274.69c4.047,53.365,48.596,95.415,102.997,95.415s98.95-42.05,102.997-95.415H95.766z"/>
		</g>
	</g>
</g>
<g>
</g>
<g>
</g>
<g>
</g>
<g>
</g>
<g>
</g>
<g>
</g>
<g>
</g>
<g>
</g>
<g>
</g>
<g>
</g>
<g>
</g>
<g>
</g>
<g>
</g>
<g>
</g>
<g>
</g>
</svg>
