<svg height="512pt" viewBox="-50 0 512 512.1" width="512pt" xmlns="http://www.w3.org/2000/svg"><path d="m347.25 157.398438v-73c0-6.597657-5.398438-12-12-12h-24v147.402343zm0 0" fill="#e9e9ea"/><path d="m311.050781 295v132.398438c0 6.601562-5.402343 12-12 12h-236v24.402343c0 6.597657 5.398438 12 12 12h260c6.597657 0 12-5.402343 12-12v-231.199219zm0 0" fill="#e9e9ea"/><path d="m290.851562 330c-2 3.398438-6.203124 4.398438-9.601562 2.601562l-20.398438-11.800781c-3.402343-2-4.402343-6.199219-2.601562-9.601562l52.800781-91.398438v-171.800781c0-6.601562-5.402343-12-12-12h-204.199219c-5 0-9.601562 2-13.203124 5.398438l-49 49.203124c-3.398438 3.398438-5.398438 8.199219-5.398438 13.199219v323.597657c0 6.601562 5.398438 12 12 12h260c6.601562 0 12-5.398438 12-12v-132.398438zm0 0" fill="#e9e9ea"/><path d="m396.050781 110.199219c-7-4-16-1.597657-20 5.402343l-4 7c1 .199219 1.800781.398438 2.800781.796876l20.398438 11.800781c.800781.402343 1.601562 1.199219 2.199219 2l4-7c4-7 1.601562-16-5.398438-20zm0 0" fill="#6d6c6b"/><path d="m374.851562 123.398438 20.398438 11.800781c3.398438 2 4.398438 6.199219 2.601562 9.601562l-107 185.199219c-2 3.398438-6.203124 4.398438-9.601562 2.601562l-20.398438-11.800781c-3.402343-2-4.402343-6.199219-2.601562-9.601562l107-185.199219c2-3.398438 6.199219-4.398438 9.601562-2.601562zm0 0" fill="#6d6c6b"/><path d="m281.449219 332.601562-20.398438-11.800781c-.800781-.402343-1.601562-1.199219-2.199219-2l-11.402343 20 25.402343 14.597657 11.597657-20c-1.398438 0-2.199219-.398438-3-.796876zm0 0" fill="#6d6c6b"/><path d="m247.25 338.800781-4.199219 30.398438c-.199219 1.800781 1 3.601562 2.800781 3.800781 1 .199219 1.796876-.199219 2.597657-.601562l24.199219-18.796876zm0 0" fill="#ffcd29"/><path d="m80.25 96c3.800781 0 7-3.199219 7-7v-51.199219c-2 1-3.800781 2.199219-5.398438 3.800781l-24.601562 24.398438-24.601562 24.601562c-1.597657 1.597657-2.796876 3.398438-3.796876 5.398438zm0 0" fill="#55acd5"/><path d="m311.050781 224.800781c-2.800781 0-5-2.199219-5-5v-147.402343c0-2.796876 2.199219-5 5-5h24c9.398438 0 17 7.601562 17 17v73c0 .800781-.199219 1.800781-.601562 2.402343l-36 62.398438c-.800781 1.601562-2.597657 2.601562-4.398438 2.601562zm5-147.402343v123.800781l26-45.199219v-71.601562c0-3.796876-3.199219-7-7-7zm31.199219 80" fill="#231f20"/><path d="m335.25 480.601562h-260c-9.398438 0-17-7.601562-17-17v-24.402343c0-2.800781 2.199219-5 5-5h236c3.800781 0 7-3.199219 7-7v-132.398438c0-.800781.199219-1.800781.601562-2.402343l36-62.398438c1.398438-2.398438 4.398438-3.199219 6.796876-1.800781 1.601562.800781 2.402343 2.601562 2.402343 4.402343v231.199219c0 9.199219-7.402343 16.800781-16.800781 16.800781zm-267-36.203124v19.402343c0 3.800781 3.199219 7 7 7h260c3.800781 0 7-3.199219 7-7v-212.601562l-26 45.199219v131c0 9.402343-7.601562 17-17 17zm0 0" fill="#231f20"/><path d="m299.25 444.398438h-260c-9.398438 0-17-7.597657-17-17v-323.597657c0-6.199219 2.398438-12.199219 7-16.601562l49-49.199219c4.398438-4.398438 10.398438-7 16.601562-7h204.199219c9.398438 0 17 7.601562 17 17v171.800781c0 .800781-.199219 1.800781-.601562 2.398438l-52.800781 91.402343c-.597657 1-.199219 2.199219.800781 2.597657l20.402343 11.800781c1 .601562 2.199219.199219 2.597657-.800781l20.199219-35c1.402343-2.398438 4.402343-3.199219 6.800781-1.800781 1.601562.800781 2.402343 2.601562 2.402343 4.402343v132.398438c.199219 9.601562-7.402343 17.199219-16.601562 17.199219zm-204.398438-403.398438c-3.601562 0-7 1.398438-9.601562 4l-49 49c-2.601562 2.601562-4 6-4 9.601562v323.597657c0 3.800781 3.199219 7 7 7h260c3.800781 0 7-3.199219 7-7v-113.597657l-10.800781 18.796876c-3.398438 5.800781-10.597657 7.601562-16.398438 4.402343l-20.402343-11.800781c-5.796876-3.398438-7.597657-10.601562-4.398438-16.398438l52.199219-90.203124v-170.398438c0-3.800781-3.199219-7-7-7zm196 289" fill="#231f20"/><path d="m22.25 470.601562h-3.601562v-3.601562c0-2.800781-2.199219-5-5-5-2.796876 0-5 2.199219-5 5v3.601562h-3.597657c-2.800781 0-4.9999998 2.199219-4.9999998 5 0 2.796876 2.1992188 5 4.9999998 5h3.597657v3.597657c0 2.800781 2.203124 5 5 5 2.800781 0 5-2.199219 5-5v-3.597657h3.601562c2.800781 0 5-2.203124 5-5 0-2.800781-2.199219-5-5-5zm0 0" fill="#55acd5"/><path d="m378.449219 41.601562c0-.402343-.199219-.601562-.199219-1-.199219-.203124-.199219-.601562-.398438-.800781-.203124-.199219-.402343-.601562-.601562-.800781-2-1.800781-5-1.800781-7 0-.199219.199219-.398438.398438-.601562.800781-.398438.597657-.597657 1.199219-.796876 1.800781-.203124.597657-.203124 1.398438 0 2 0 .398438.199219.597657.199219 1 .199219.398438.199219.597657.398438.796876.199219.203124.402343.601562.601562.800781 2 2 5 2 7 0 .199219-.199219.398438-.398438.597657-.800781.203124-.199219.402343-.597657.402343-.796876.199219-.203124.199219-.601562.199219-1 .398438-.601562.398438-1.203124.199219-2zm0 0" fill="#ea4647"/><path d="m58.050781 506c0-.398438-.199219-.601562-.199219-1-.203124-.199219-.203124-.601562-.402343-.800781s-.398438-.597657-.597657-.800781c-2-1.796876-5-1.796876-7 0-.203124.203124-.402343.402343-.601562.800781-.398438.601562-.601562 1.199219-.800781 1.800781s-.199219 1.398438 0 2c0 .398438.199219.601562.199219 1 .203124.398438.203124.601562.402343.800781s.398438.597657.597657.800781c2 2 5 2 7 0 .203124-.203124.402343-.402343.601562-.800781.199219-.199219.398438-.601562.398438-.800781.203124-.199219.203124-.601562.203124-1 .398438-.601562.398438-1.398438.199219-2zm0 0" fill="#6dcc6d"/><path d="m355.050781 16.398438c-8.199219-1.597657-14.402343-8-16-16 0-.199219-.199219-.398438-.402343-.398438-.199219 0-.199219.199219-.398438.398438-1.601562 8.203124-8 14.402343-16 16-.199219 0-.398438.203124-.398438.402343s.199219.199219.398438.398438c8.199219 1.601562 14.398438 8 16 16 0 .199219.199219.402343.398438.402343.203124 0 .203124-.203124.402343-.402343 1.597657-8.199219 8-14.398438 16-16 .199219 0 .398438-.199219.398438-.398438-.199219-.402343-.398438-.402343-.398438-.402343zm0 0" fill="#ffcd29"/><g fill="#231f20"><path d="m80.25 101h-51.398438c-2.800781 0-5-2.199219-5-5 0-.800781.199219-1.398438.398438-2 1.199219-2.601562 2.800781-5 4.800781-7l49.199219-49c2-2 4.398438-3.601562 7-4.800781s5.398438 0 6.601562 2.402343c.199219.597657.398438 1.398438.398438 2v51.199219c-.199219 6.800781-5.398438 12.199219-12 12.199219zm-41-10h41c1 0 2-.800781 2-2v-40.800781zm0 0"/><path d="m261.25 188.601562h-184.199219c-2.800781 0-5-2.203124-5-5 0-2.800781 2.199219-5 5-5h184.199219c2.800781 0 5 2.199219 5 5 0 2.796876-2.199219 5-5 5zm0 0"/><path d="m215.25 161.398438h-92.199219c-2.800781 0-5-2.199219-5-5 0-2.796876 2.199219-5 5-5h92.199219c2.800781 0 5 2.203124 5 5 0 2.800781-2.199219 5-5 5zm0 0"/><path d="m261.25 215.601562h-184.199219c-2.800781 0-5-2.203124-5-5 0-2.800781 2.199219-5 5-5h184.199219c2.800781 0 5 2.199219 5 5 0 2.796876-2.199219 5-5 5zm0 0"/><path d="m261.25 242.601562h-184.199219c-2.800781 0-5-2.203124-5-5 0-2.800781 2.199219-5 5-5h184.199219c2.800781 0 5 2.199219 5 5 0 2.796876-2.199219 5-5 5zm0 0"/><path d="m261.25 269.800781h-184.199219c-2.800781 0-5-2.199219-5-5s2.199219-5 5-5h184.199219c2.800781 0 5 2.199219 5 5s-2.199219 5-5 5zm0 0"/><path d="m242.851562 296.800781h-166c-2.800781 0-5-2.199219-5-5s2.199219-5 5-5h166c2.796876 0 5 2.199219 5 5s-2.203124 5-5 5zm0 0"/><path d="m231.050781 323.800781h-154c-2.800781 0-5-2.199219-5-5s2.199219-5 5-5h154c2.800781 0 5 2.199219 5 5s-2.402343 5-5 5zm0 0"/><path d="m227.050781 351h-150c-2.800781 0-5-2.199219-5-5s2.199219-5 5-5h150c2.800781 0 5 2.199219 5 5s-2.402343 5-5 5zm0 0"/><path d="m227.050781 378h-150c-2.800781 0-5-2.199219-5-5s2.199219-5 5-5h150c2.800781 0 5 2.199219 5 5s-2.402343 5-5 5zm0 0"/><path d="m397.449219 142.199219c-1.597657 0-3-.800781-4-2-.199219-.199219-.398438-.398438-.597657-.597657l-20.402343-11.800781c-.199219-.199219-.398438-.199219-.800781-.199219-2.796876-.402343-4.796876-2.800781-4.398438-5.601562 0-.601562.199219-1.398438.601562-2l4-7c5.597657-9.398438 17.597657-12.398438 26.796876-7 9.203124 5.398438 12.402343 17.199219 7.203124 26.601562l-4 7c-.800781 1.398438-2.402343 2.398438-4 2.398438-.203124.199219-.402343.199219-.402343.199219zm-18.199219-22 16.601562 9.601562 1.199219-2.199219c2.597657-4.601562 1-10.402343-3.601562-13.203124-4.597657-2.597657-10.398438-1-13 3.402343zm0 0"/><path d="m366.449219 234.800781c-.800781 0-1.800781-.199219-2.398438-.601562l-3.402343-2c-2.398438-1.398438-3.199219-4.398438-1.796876-6.800781 1.199219-2 3.597657-3 5.796876-2.199219l35.800781-62c4-7 1.601562-16.199219-5.398438-20.199219l-25-14.398438c-2.402343-1.402343-3.199219-4.402343-1.800781-6.800781 1.398438-2.402343 4.398438-3.199219 6.800781-1.800781l25 14.398438c11.800781 6.800781 16 22 9 34l-38.199219 66.203124c-1 1.199219-2.601562 2.199219-4.402343 2.199219zm0 0"/><path d="m399.050781 178.199219c-.800781 0-1.800781-.199219-2.402343-.597657l-13.199219-7.601562c-2.398438-1.398438-3.199219-4.398438-1.800781-6.800781l15.203124-26.398438c1.398438-2.402343 4.398438-3.199219 6.796876-1.800781.402343.199219.601562.398438 1 .601562 8.402343 7.796876 10.203124 20.597657 4.402343 30.398438l-5.601562 9.601562c-1 1.597657-2.597657 2.597657-4.398438 2.597657zm-6.402343-14.398438 4.601562 2.597657 3-5.199219c2.199219-3.800781 2.601562-8.398438 1.199219-12.398438zm0 0"/><path d="m246.25 378c-4.601562 0-8.398438-3.800781-8.398438-8.398438 0-.402343 0-.800781 0-1.203124l4.199219-30.398438c.398438-2.800781 3-4.601562 5.597657-4.199219.601562 0 1.203124.398438 1.800781.597657l25.402343 14.601562c2.398438 1.398438 3.199219 4.398438 1.796876 6.800781-.398438.597657-.796876 1-1.199219 1.398438l-24.199219 18.800781c-1.199219 1.398438-3 2-5 2zm5-31.199219-2.601562 19 15.203124-11.800781zm0 0"/><path d="m284.851562 338.601562c-2 0-4.203124-.601562-6-1.601562l-20.402343-11.800781c-5.800781-3.398438-7.597657-10.597657-4.398438-16.398438l107-185.199219c3.398438-5.800781 10.597657-7.601562 16.398438-4.402343l20.402343 11.800781c5.796876 3.398438 7.597657 10.601562 4.398438 16.398438l-107 185.203124c-2.199219 3.597657-6.199219 6-10.398438 6zm-1-10.402343c1 .601562 2.199219.199219 2.597657-.800781l107-185.199219c.601562-1 .199219-2.199219-.800781-2.597657l-20.398438-11.800781c-1-.601562-2.199219-.199219-2.601562.800781l-107 185.199219c-.597657 1-.199219 2.199219.800781 2.597657zm0 0"/><path d="m272.648438 358.398438c-.796876 0-1.796876-.199219-2.398438-.597657l-25.398438-14.601562c-2.402343-1.398438-3.203124-4.398438-1.800781-6.800781l11.597657-20c1.402343-2.398438 4.402343-3.199219 6.800781-1.796876.601562.398438 1.199219.796876 1.601562 1.398438.199219.199219.398438.398438.597657.601562l20.402343 11.796876c.199219.203124.398438.203124.800781.203124 2.796876.398438 4.796876 2.796876 4.398438 5.597657 0 .601562-.199219 1.402343-.601562 2l-11.597657 20c-1 1.199219-2.601562 2.199219-4.402343 2.199219zm-18.597657-21.398438 16.597657 9.601562 6.203124-10.800781-16.601562-9.601562zm0 0"/></g></svg>