<?xml version="1.0"?>
<svg xmlns="http://www.w3.org/2000/svg" xmlns:xlink="http://www.w3.org/1999/xlink" version="1.1" id="Capa_1" x="0px" y="0px" width="512px" height="512px" viewBox="0 0 36.289 36.289" style="enable-background:new 0 0 36.289 36.289;" xml:space="preserve" class=""><g><g>
	<path d="M32.855,17.725c-1.306-1.254-3.146-1.398-4.42-1.398c-0.654,0-1.286,0.043-1.884,0.089c-0.047,0-0.137-0.026-0.215-0.054   c-0.125-0.037-0.274-0.084-0.444-0.092c-0.607-0.131-1.078-0.258-1.521-0.609c-0.901-0.801-1.692-1.803-2.459-2.771L21.365,12.2   c-1.004-1.209-2.231-2.816-2.844-4.543c-0.324-0.862-0.455-1.776-0.41-2.881c0.009-0.211,0.021-0.414,0.031-0.613   c0.047-0.803,0.091-1.561-0.171-2.34C17.6,0.663,16.687,0,15.464,0c-0.82,0-1.684,0.312-2.34,0.834   c-1.645,1.144-2.703,3.312-2.832,5.806c-0.066,1.396,0.359,2.6,0.771,3.76c0.359,1.012,0.699,1.967,0.695,3   c-0.004,1.566-1.357,2.002-3.271,2.447c-0.21,0.049-0.416,0.096-0.578,0.139c-0.22,0.039-0.443,0.076-0.669,0.115   c-1.436,0.237-3.062,0.51-4.239,1.633c-0.89,0.883-1.312,2.339-1.078,3.712c0.17,0.99,0.658,1.805,1.363,2.289   c-0.445,1.686,0.381,3.646,1.981,4.693c-0.154,0.762-0.011,1.623,0.414,2.428c0.475,0.9,1.229,1.604,2.069,1.939   c0.002,1.543,1.057,2.887,2.715,3.357c0.459,0.092,0.959,0.137,1.529,0.137c0.838,0,1.678-0.098,2.492-0.189   c0.271-0.031,0.541-0.061,0.852-0.094c0.479-0.1,0.98-0.16,1.484-0.227c1.035-0.133,2.105-0.27,3.076-0.688   c0.784-0.35,1.476-0.855,2.146-1.342c0.219-0.158,0.434-0.314,0.652-0.467c0.215-0.156,0.434-0.359,0.658-0.57   c0.385-0.363,0.783-0.738,1.168-0.812c0.342-0.066,0.669-0.102,0.985-0.137c0.354-0.037,0.695-0.074,1.031-0.145h0.166   c0.354,0,0.743,0.021,1.147,0.047c0.459,0.025,0.937,0.057,1.41,0.057c1.165,0,2.625-0.15,3.564-1.307   c1.387-1.646,1.588-4.154,1.596-6.617l0.002-0.107C34.445,21.885,34.459,19.152,32.855,17.725z M32.176,23.316l-0.002,0.48   c0.011,1.885-0.108,3.809-1.028,5.143c-0.31,0.475-0.926,0.51-1.767,0.51h-0.092c0.476-0.967,0.66-2.09,0.775-3.107   c0.194-1.855,0.176-3.668-0.062-5.396c-0.104-0.756-0.261-1.58-0.623-2.314c0.684,0.075,1.381,0.263,1.916,0.717   C32.205,20.107,32.189,22.039,32.176,23.316z" data-original="#000000" class="active-path" data-old_color="#ffffff" fill="#ffffff"/>
</g></g> </svg>
