<svg xmlns="http://www.w3.org/2000/svg" viewBox="0 0 55 55"><defs><style>.cls-1{fill:#606060;}</style></defs><title>Asset 1</title><g id="Layer_2" data-name="Layer 2"><g id="Capa_1" data-name="Capa 1"><path class="cls-1" d="M55,27.5A27.5,27.5,0,1,0,8.93,47.76l0,0,.89.75.18.14c.47.39,1,.77,1.47,1.13l.49.34c.53.37,1.08.72,1.64,1l.37.21c.61.35,1.23.68,1.88,1l.14.07a27.28,27.28,0,0,0,6.65,2.1l.18,0c.73.12,1.46.22,2.2.29l.27,0c.74.06,1.48.1,2.24.1s1.49,0,2.22-.1l.28,0c.74-.07,1.46-.16,2.18-.29l.19,0a27.44,27.44,0,0,0,6.55-2.05l.23-.11c.62-.29,1.22-.6,1.81-.93l.44-.26c.54-.31,1.07-.65,1.58-1,.19-.12.37-.26.55-.39.44-.31.87-.64,1.29-1,.09-.08.19-.14.29-.22l.91-.76,0,0A27.42,27.42,0,0,0,55,27.5Zm-53,0A25.5,25.5,0,1,1,44.41,46.56a7.45,7.45,0,0,0-.89-.53l-8.47-4.24a2.21,2.21,0,0,1-1.23-2v-3c.19-.24.4-.51.62-.81a20.49,20.49,0,0,0,2.61-5.13,3.62,3.62,0,0,0,2.09-3.29V24.07a3.63,3.63,0,0,0-.89-2.37V17a8,8,0,0,0-1.88-5.86C34.52,9.06,31.54,8,27.5,8s-7,1.07-8.87,3.17A8,8,0,0,0,16.75,17V21.7a3.63,3.63,0,0,0-.89,2.37v3.54a3.65,3.65,0,0,0,1.34,2.82,18.59,18.59,0,0,0,3.1,6.39v2.9a2.22,2.22,0,0,1-1.17,2L11.23,46a6.78,6.78,0,0,0-.76.47A25.46,25.46,0,0,1,2,27.5Z"/></g></g></svg>