<?xml version="1.0" standalone="no"?>
<!DOCTYPE svg PUBLIC "-//W3C//DTD SVG 20010904//EN"
 "http://www.w3.org/TR/2001/REC-SVG-20010904/DTD/svg10.dtd">
<svg version="1.0" xmlns="http://www.w3.org/2000/svg"
 width="2709.000000pt" height="2709.000000pt" viewBox="0 0 2709.000000 2709.000000"
 preserveAspectRatio="xMidYMid meet">
<metadata>
Created by potrace 1.11, written by Peter Selinger 2001-2013
</metadata>
<g transform="translate(0.000000,2709.000000) scale(0.100000,-0.100000)"
fill="#000000" stroke="none">
<path d="M4591 27078 c-89 -25 -176 -111 -205 -203 -15 -46 -16 -1154 -14
-13345 l3 -13295 23 -50 c79 -172 304 -235 452 -127 19 14 1966 1956 4325
4315 2360 2360 4308 4303 4329 4319 22 15 58 33 80 40 31 9 1109 12 4466 13
l4425 1 56 26 c31 14 68 36 83 49 39 34 82 108 93 160 10 51 10 17826 -1
17876 -18 88 -97 177 -190 212 -51 20 -109 20 -8971 20 -5816 -1 -8932 -4
-8954 -11z"/>
</g>
</svg>
